<?xml version="1.0" standalone="no"?>
<!DOCTYPE svg PUBLIC "-//W3C//DTD SVG 20010904//EN"
 "http://www.w3.org/TR/2001/REC-SVG-20010904/DTD/svg10.dtd">
<svg version="1.0" xmlns="http://www.w3.org/2000/svg"
 width="410.000000pt" height="410.000000pt" viewBox="0 0 410.000000 410.000000"
 preserveAspectRatio="xMidYMid meet">
<metadata>
Created by potrace 1.14, written by Peter Selinger 2001-2017
</metadata>
<g transform="translate(0.000000,410.000000) scale(0.100000,-0.100000)"
fill="#000000" stroke="none">
<path d="M720 2764 c-63 -7 -124 -16 -135 -19 -21 -5 -62 -88 -85 -175 -21
-75 -17 -215 9 -295 14 -46 18 -71 11 -73 -7 -3 -7 -8 1 -19 45 -54 244 -77
644 -77 285 0 316 2 387 21 105 30 168 64 215 117 57 64 103 163 111 238 l7
63 55 13 c35 9 121 15 238 16 l183 1 -4 23 c-3 17 0 22 18 22 21 0 21 -2 12
-66 -19 -133 27 -286 110 -361 53 -48 99 -62 303 -89 97 -12 178 -15 365 -11
133 2 256 10 275 16 35 11 36 12 55 98 20 97 31 302 20 389 -6 52 -9 57 -42
71 -143 59 -524 67 -832 18 -194 -32 -650 -38 -792 -11 -40 7 -78 12 -84 9 -7
-2 -45 5 -86 16 -256 70 -680 98 -959 65z m560 -53 c21 -8 22 -10 5 -10 -11
-1 -33 -8 -50 -17 -16 -9 -58 -25 -93 -35 -85 -27 -156 -70 -160 -97 -5 -30 7
-28 84 13 89 47 100 46 107 -11 8 -78 57 -123 141 -131 84 -7 151 54 151 138
0 27 5 49 10 49 19 0 103 -28 135 -45 36 -18 63 -14 54 9 -8 22 -97 61 -184
81 -41 10 -80 22 -87 27 -6 5 -24 13 -40 18 -21 7 -16 8 22 4 94 -11 320 -55
330 -65 5 -5 18 -9 30 -9 36 0 82 -36 95 -76 10 -29 10 -49 1 -89 -15 -66
-100 -198 -150 -230 -93 -62 -365 -92 -693 -75 -273 14 -367 26 -389 51 -56
65 -74 300 -31 409 12 30 26 60 30 67 4 6 59 18 122 27 129 17 516 15 560 -3z
m1961 -51 c117 -12 213 -36 230 -57 15 -17 5 -231 -15 -341 -21 -115 -13 -111
-271 -119 -177 -5 -251 -2 -379 12 -150 17 -163 20 -225 55 -73 41 -104 78
-127 154 -21 69 -30 187 -16 213 7 12 29 25 55 31 50 13 236 42 268 42 36 0
11 -18 -43 -30 -88 -21 -138 -49 -138 -76 0 -29 8 -30 57 -5 21 11 54 23 73
26 l35 6 0 -49 c0 -85 61 -125 155 -102 73 18 113 67 122 150 4 30 21 30 123
-6 39 -14 78 -27 88 -31 11 -3 17 0 17 9 0 35 -84 77 -195 98 -38 7 -77 16
-85 21 -21 12 147 11 271 -1z m-1311 -38 l75 -8 -41 -12 c-91 -26 -98 -26
-117 7 -12 21 -14 29 -5 26 7 -3 47 -9 88 -13z m-541 -28 c27 -34 26 -45 -1
-76 -44 -50 -105 -47 -138 7 -39 63 -17 95 65 95 46 0 56 -4 74 -26z m1569
-30 c4 -37 -34 -79 -79 -89 -41 -9 -79 17 -79 53 1 52 34 71 120 68 31 -1 35
-4 38 -32z"/>
<path d="M1575 2439 c-127 -69 -250 -97 -438 -100 -141 -2 -126 -18 24 -26 87
-4 134 -2 196 11 134 27 303 106 303 141 0 20 -4 19 -85 -26z"/>
<path d="M1940 2520 c0 -53 -37 -140 -99 -231 -64 -94 -67 -123 -6 -61 81 82
147 232 131 296 -9 36 -26 33 -26 -4z"/>
<path d="M2250 2438 c0 -66 36 -147 79 -177 49 -35 54 -21 15 39 -27 40 -40
73 -48 123 -8 53 -14 67 -28 67 -15 0 -18 -9 -18 -52z"/>
<path d="M1720 2054 c0 -3 8 -31 17 -62 17 -55 18 -56 21 -23 5 45 -4 77 -23
85 -8 3 -15 3 -15 0z"/>
<path d="M1532 2030 c-18 -19 -42 -82 -42 -110 0 -6 7 -27 16 -46 20 -42 99
-83 177 -91 49 -5 57 -9 68 -34 15 -38 81 -97 135 -120 97 -43 245 -31 382 30
37 16 76 32 88 35 21 6 84 63 84 76 0 4 20 5 45 2 59 -6 100 12 119 53 21 44
20 83 -4 122 -24 41 -60 64 -113 74 -51 9 -72 -6 -88 -64 -14 -52 -6 -57 23
-13 31 48 59 47 110 -4 34 -34 39 -44 33 -67 -3 -16 -11 -34 -17 -40 -13 -16
-80 -17 -94 -3 -8 8 -25 -5 -56 -42 -44 -52 -50 -55 -159 -88 -98 -30 -128
-35 -215 -35 -94 0 -104 2 -149 30 -26 17 -57 43 -69 58 -18 24 -19 31 -7 49
7 11 9 24 4 29 -9 9 -53 12 -93 6 -39 -6 -123 22 -147 49 -28 31 -29 58 -3
109 11 22 20 43 20 47 0 15 -29 8 -48 -12z"/>
<path d="M1465 1648 c-39 -46 -69 -97 -62 -104 6 -6 77 76 100 115 26 45 5 38
-38 -11z"/>
<path d="M1345 1668 c-23 -13 -21 -12 -100 -76 -75 -61 -94 -82 -72 -82 21 0
209 149 202 161 -7 11 -5 11 -30 -3z"/>
<path d="M1525 1619 c-59 -73 -69 -89 -57 -89 19 0 122 111 122 130 0 32 -12
24 -65 -41z"/>
<path d="M1204 1639 c-112 -60 -164 -117 -164 -181 0 -54 37 -94 102 -107 66
-15 87 1 32 24 -137 57 -109 131 99 259 15 9 27 21 27 26 0 18 -37 10 -96 -21z"/>
<path d="M1677 1652 c-28 -30 -20 -49 8 -22 25 24 32 40 17 40 -5 0 -16 -8
-25 -18z"/>
<path d="M1387 1640 c-14 -11 -40 -38 -57 -60 -26 -33 -29 -40 -14 -40 17 0
114 95 114 112 0 14 -16 9 -43 -12z"/>
<path d="M2330 1645 c0 -15 42 -85 72 -119 52 -59 66 -41 18 24 -22 30 -47 65
-55 78 -14 20 -35 30 -35 17z"/>
<path d="M2424 1639 c-7 -11 93 -115 102 -106 7 7 -65 103 -83 111 -7 3 -15 1
-19 -5z"/>
<path d="M1611 1618 c-20 -32 -32 -80 -19 -76 20 7 54 76 43 87 -7 7 -15 4
-24 -11z"/>
<path d="M2534 1619 c-13 -21 102 -119 120 -102 7 7 -93 113 -106 113 -4 0
-10 -5 -14 -11z"/>
<path d="M2690 1627 c3 -3 37 -13 75 -21 98 -22 253 -86 287 -118 27 -25 28
-28 15 -60 -7 -18 -27 -42 -45 -53 -34 -22 -42 -45 -14 -45 30 0 91 58 103
100 10 33 9 43 -5 65 -44 67 -186 125 -326 132 -52 3 -93 3 -90 0z"/>
<path d="M1776 1599 c-12 -37 -13 -70 -2 -66 18 6 32 55 18 69 -9 9 -12 8 -16
-3z"/>
<path d="M2260 1580 c0 -57 58 -130 104 -130 18 0 16 4 -15 34 -19 19 -44 53
-54 75 -20 44 -35 53 -35 21z"/>
<path d="M2670 1580 c0 -14 41 -50 57 -50 19 0 -1 36 -27 50 -23 13 -30 13
-30 0z"/>
<path d="M1816 1558 c-17 -24 -21 -48 -8 -48 14 0 42 35 42 53 0 24 -16 21
-34 -5z"/>
<path d="M2839 1563 c12 -23 79 -88 85 -82 6 5 -76 99 -87 99 -4 0 -3 -8 2
-17z"/>
<path d="M1684 1554 c-4 -10 -9 -22 -11 -26 -2 -5 0 -8 6 -8 11 0 26 39 17 47
-3 3 -9 -3 -12 -13z"/>
<path d="M2770 1562 c0 -10 33 -42 44 -42 3 0 -1 11 -10 25 -16 25 -34 33 -34
17z"/>
<path d="M2990 1490 c0 -10 9 -24 20 -30 17 -9 20 -8 20 8 0 18 -18 42 -32 42
-4 0 -8 -9 -8 -20z"/>
<path d="M1335 1486 c-68 -13 -125 -34 -125 -46 0 -16 40 -17 136 -3 134 19
265 12 384 -20 319 -87 370 -97 511 -97 141 0 153 2 389 75 54 16 123 29 187
33 88 6 101 9 93 22 -7 12 -30 15 -107 13 -97 -1 -109 -4 -363 -74 -64 -17
-95 -20 -215 -16 -129 4 -156 9 -340 57 -110 28 -216 56 -235 61 -49 12 -243
9 -315 -5z"/>
<path d="M2562 1290 c-64 -51 -302 -167 -360 -176 -59 -9 -257 12 -356 37 -96
24 -148 50 -183 89 -31 36 -43 38 -43 8 0 -32 68 -90 136 -115 93 -35 163 -50
288 -63 155 -16 201 -7 374 78 136 66 222 130 222 165 0 27 -24 20 -78 -23z"/>
<path d="M1767 1074 c-3 -3 -1 -18 4 -32 7 -19 5 -34 -9 -63 -15 -30 -16 -39
-6 -39 25 0 47 47 41 87 -7 38 -19 58 -30 47z"/>
<path d="M2410 1030 c0 -51 8 -61 30 -35 16 20 4 85 -15 85 -11 0 -15 -13 -15
-50z"/>
<path d="M1873 1020 c-20 -47 -18 -75 5 -47 15 18 42 75 42 87 0 27 -27 4 -47
-40z"/>
<path d="M2326 1063 c-3 -3 -6 -22 -6 -41 0 -29 2 -33 15 -22 8 7 15 23 15 36
0 24 -12 38 -24 27z"/>
<path d="M1995 1023 c-4 -15 -13 -43 -21 -61 -16 -37 -18 -62 -5 -62 12 0 37
58 44 102 7 44 -10 62 -18 21z"/>
<path d="M2215 1008 c8 -50 10 -52 24 -43 15 9 14 58 -1 73 -22 22 -30 12 -23
-30z"/>
<path d="M2100 1023 c0 -11 -7 -38 -16 -59 -16 -39 -16 -39 4 -21 23 21 37 76
22 91 -7 7 -10 3 -10 -11z"/>
</g>
</svg>
